<?xml version="1.0" encoding="utf-8"?>
<!-- Generator: Adobe Illustrator 23.0.3, SVG Export Plug-In . SVG Version: 6.00 Build 0)  -->
<svg version="1.1" xmlns="http://www.w3.org/2000/svg" xmlns:xlink="http://www.w3.org/1999/xlink" x="0px" y="0px"
	 viewBox="0 0 500 500" style="enable-background:new 0 0 500 500;" xml:space="preserve">
<style type="text/css">
	.st0{display:none;}
	.st1{display:inline;opacity:0.32;fill:#E9E7FD;}
	.st2{fill:#BECBFC;}
	.st3{opacity:0.38;}
	.st4{opacity:0.18;}
	.st5{opacity:0.8;clip-path:url(#SVGID_2_);}
	.st6{clip-path:url(#SVGID_2_);}
	.st7{fill:#4375FA;}
	.st8{fill:#819FDE;}
	.st9{opacity:0.8;clip-path:url(#SVGID_4_);}
	.st10{clip-path:url(#SVGID_4_);}
	.st11{opacity:0.8;clip-path:url(#SVGID_6_);}
	.st12{clip-path:url(#SVGID_6_);}
	.st13{opacity:0.8;clip-path:url(#SVGID_8_);}
	.st14{clip-path:url(#SVGID_8_);}
	.st15{opacity:0.8;fill:#BECBFC;}
	.st16{opacity:0.4;clip-path:url(#XMLID_17_);fill:#507CC7;}
	.st17{opacity:0.5;clip-path:url(#XMLID_17_);fill:#4375F1;}
	.st18{opacity:0.31;clip-path:url(#XMLID_18_);fill:#E2B187;}
	.st19{fill:#E2B187;}
	.st20{opacity:0.28;clip-path:url(#XMLID_19_);fill:#AF703F;}
	.st21{opacity:0.31;clip-path:url(#XMLID_20_);fill:#A172AE;}
	.st22{fill:#EDBA8F;}
	.st23{opacity:0.28;clip-path:url(#XMLID_21_);fill:#AF703F;}
	.st24{fill:#4375F1;}
	.st25{fill:#43464A;}
	.st26{fill:#C22373;}
	.st27{fill:#FFFFFF;}
	.st28{fill:#E79D90;}
	.st29{fill:#CBCFD6;}
	.st30{opacity:0.61;clip-path:url(#XMLID_22_);fill:#838BC0;}
	.st31{fill:#838BC0;}
	.st32{clip-path:url(#SVGID_10_);fill:#CDBDF9;}
	.st33{clip-path:url(#SVGID_10_);}
	.st34{fill:#6DAAA3;}
	.st35{opacity:0.45;clip-path:url(#XMLID_23_);fill:#E7B59D;}
	.st36{fill:#2E5271;}
	.st37{fill:#E7B59D;}
	.st38{fill:#61002F;}
	.st39{fill:#EFFDFF;}
	.st40{fill:#E19F9D;}
	.st41{fill:#9A6253;}
	.st42{opacity:0.22;clip-path:url(#XMLID_26_);fill:#606060;}
	.st43{opacity:0.22;clip-path:url(#XMLID_29_);fill:#E6B851;}
	.st44{clip-path:url(#SVGID_12_);fill:#7CBFB9;}
	.st45{clip-path:url(#SVGID_12_);}
	.st46{opacity:0.45;clip-path:url(#XMLID_30_);fill:#E7B59D;}
	.st47{fill:#F9CA45;}
	.st48{opacity:0.52;clip-path:url(#XMLID_31_);fill:#A072AE;}
	.st49{opacity:0.45;clip-path:url(#XMLID_33_);fill:#E7B59D;}
	.st50{opacity:0.45;clip-path:url(#XMLID_34_);fill:#E7B59D;}
	.st51{fill:#A072AE;}
	.st52{fill:#E2A29D;}
	.st53{display:inline;}
	.st54{fill:#141414;}
</style>
<g id="BACKGROUND" class="st0">
	<rect class="st1" width="500" height="500"/>
</g>
<g id="OBJECTS">
	<g>
		<g>
			<path class="st2" d="M253.47,395.14c-41.02,0-79.59-15.98-108.6-44.98c-29.01-29.01-44.98-67.58-44.98-108.6
				c0-41.02,15.98-79.59,44.98-108.6c29.01-29.01,67.58-44.98,108.6-44.98c41.02,0,79.59,15.98,108.6,44.98
				c29.01,29.01,44.98,67.58,44.98,108.6c0,41.02-15.98,79.59-44.98,108.6C333.06,379.17,294.49,395.14,253.47,395.14z M253.47,88.4
				c-40.91,0-79.37,15.93-108.3,44.86s-44.86,67.39-44.86,108.3c0,40.91,15.93,79.37,44.86,108.3
				c28.93,28.93,67.39,44.86,108.3,44.86c40.91,0,79.37-15.93,108.3-44.86c28.93-28.93,44.86-67.39,44.86-108.3
				c0-40.91-15.93-79.37-44.86-108.3C332.84,104.33,294.38,88.4,253.47,88.4z"/>
		</g>
		<g>
			<path class="st2" d="M253.47,413.43c-23.2,0-45.71-4.54-66.9-13.51c-20.47-8.66-38.85-21.05-54.63-36.83
				c-15.78-15.78-28.18-34.16-36.83-54.63c-8.96-21.19-13.51-43.7-13.51-66.9c0-23.2,4.54-45.71,13.51-66.9
				c8.66-20.47,21.05-38.85,36.83-54.63c15.78-15.78,34.16-28.18,54.63-36.83c21.19-8.96,43.7-13.51,66.9-13.51
				c23.2,0,45.71,4.54,66.9,13.51c20.47,8.66,38.85,21.05,54.63,36.83c15.78,15.78,28.18,34.16,36.83,54.63
				c8.96,21.19,13.51,43.7,13.51,66.9c0,23.2-4.54,45.71-13.51,66.9c-8.66,20.47-21.05,38.85-36.83,54.63
				c-15.78,15.78-34.16,28.18-54.63,36.83C299.18,408.88,276.67,413.43,253.47,413.43z M253.47,70.17
				c-23.14,0-45.58,4.53-66.71,13.47c-20.41,8.63-38.74,20.99-54.48,36.73c-15.74,15.74-28.1,34.07-36.73,54.48
				c-8.94,21.13-13.47,43.57-13.47,66.71c0,23.14,4.53,45.58,13.47,66.71c8.63,20.41,20.99,38.74,36.73,54.48
				c15.74,15.74,34.07,28.1,54.48,36.73c21.13,8.94,43.57,13.47,66.71,13.47c23.14,0,45.58-4.53,66.71-13.47
				c20.41-8.63,38.74-20.99,54.48-36.73c15.74-15.74,28.1-34.07,36.73-54.48c8.94-21.13,13.47-43.58,13.47-66.71
				c0-23.14-4.53-45.58-13.47-66.71c-8.63-20.41-20.99-38.74-36.73-54.48c-15.74-15.74-34.07-28.1-54.48-36.73
				C299.05,74.7,276.61,70.17,253.47,70.17z"/>
		</g>
		<g>
			<path class="st2" d="M253.47,362.99c-16.39,0-32.3-3.21-47.27-9.54c-14.46-6.12-27.45-14.87-38.6-26.02
				c-11.15-11.15-19.91-24.14-26.02-38.6c-6.33-14.97-9.54-30.87-9.54-47.27c0-16.39,3.21-32.3,9.54-47.27
				c6.12-14.46,14.87-27.45,26.02-38.6c11.15-11.15,24.14-19.91,38.6-26.02c14.97-6.33,30.87-9.54,47.27-9.54
				c16.39,0,32.3,3.21,47.27,9.54c14.46,6.12,27.45,14.87,38.6,26.02c11.15,11.15,19.91,24.14,26.02,38.6
				c6.33,14.97,9.54,30.87,9.54,47.27c0,16.39-3.21,32.3-9.54,47.27c-6.12,14.46-14.87,27.45-26.02,38.6
				c-11.15,11.15-24.14,19.91-38.6,26.02C285.77,359.78,269.86,362.99,253.47,362.99z M253.47,120.46c-16.35,0-32.21,3.2-47.14,9.52
				c-14.42,6.1-27.37,14.83-38.49,25.95c-11.12,11.12-19.85,24.07-25.95,38.49c-6.31,14.93-9.52,30.79-9.52,47.14
				c0,16.35,3.2,32.21,9.52,47.14c6.1,14.42,14.83,27.37,25.95,38.49c11.12,11.12,24.07,19.85,38.49,25.95
				c14.93,6.31,30.79,9.52,47.14,9.52s32.21-3.2,47.14-9.52c14.42-6.1,27.37-14.83,38.49-25.95c11.12-11.12,19.85-24.07,25.95-38.49
				c6.31-14.93,9.52-30.79,9.52-47.14c0-16.35-3.2-32.21-9.52-47.14c-6.1-14.42-14.83-27.37-25.95-38.49
				c-11.12-11.12-24.07-19.85-38.49-25.95C285.68,123.66,269.82,120.46,253.47,120.46z"/>
		</g>
		<g class="st3">
			<path class="st2" d="M253.47,435.03c-26.12,0-51.46-5.12-75.31-15.2c-23.04-9.74-43.73-23.69-61.5-41.46
				C98.9,360.6,84.95,339.9,75.2,316.87C65.11,293.01,60,267.68,60,241.56c0-26.12,5.12-51.46,15.2-75.31
				c9.74-23.04,23.69-43.73,41.46-61.5c17.77-17.77,38.46-31.72,61.5-41.46c23.85-10.09,49.19-15.2,75.31-15.2
				c26.12,0,51.46,5.12,75.31,15.2c23.04,9.74,43.73,23.69,61.5,41.46c17.77,17.77,31.72,38.46,41.46,61.5
				c10.09,23.85,15.2,49.19,15.2,75.31c0,26.12-5.12,51.46-15.2,75.31c-9.74,23.04-23.69,43.73-41.46,61.5
				c-17.77,17.77-38.46,31.72-61.5,41.46C304.93,429.92,279.59,435.03,253.47,435.03z M253.47,48.62c-26.05,0-51.31,5.1-75.1,15.16
				c-22.97,9.72-43.61,23.63-61.33,41.35c-17.72,17.72-31.63,38.35-41.35,61.33c-10.06,23.79-15.16,49.05-15.16,75.1
				c0,26.05,5.1,51.31,15.16,75.1c9.72,22.97,23.63,43.61,41.35,61.33c17.72,17.72,38.35,31.63,61.33,41.35
				c23.79,10.06,49.05,15.16,75.1,15.16c26.05,0,51.31-5.1,75.1-15.16c22.97-9.72,43.61-23.63,61.33-41.35
				c17.72-17.72,31.63-38.35,41.35-61.33c10.06-23.79,15.16-49.05,15.16-75.1c0-26.05-5.1-51.31-15.16-75.1
				c-9.72-22.97-23.63-43.61-41.35-61.33c-17.72-17.72-38.35-31.63-61.33-41.35C304.78,53.73,279.52,48.62,253.47,48.62z"/>
		</g>
		<g class="st4">
			<path class="st2" d="M253.47,458.09c-29.23,0-57.59-5.72-84.28-17.02c-25.78-10.91-48.94-26.52-68.83-46.4
				c-19.89-19.89-35.5-43.04-46.4-68.83c-11.29-26.7-17.02-55.05-17.02-84.28c0-29.23,5.73-57.59,17.02-84.28
				c10.91-25.78,26.52-48.94,46.4-68.83c19.89-19.89,43.04-35.5,68.83-46.4c26.7-11.29,55.05-17.02,84.28-17.02
				c29.23,0,57.59,5.73,84.28,17.02c25.78,10.91,48.94,26.52,68.83,46.4c19.89,19.89,35.5,43.04,46.4,68.83
				c11.29,26.7,17.02,55.05,17.02,84.28c0,29.23-5.72,57.59-17.02,84.28c-10.91,25.78-26.52,48.94-46.4,68.83
				c-19.89,19.89-43.04,35.5-68.83,46.4C311.06,452.36,282.7,458.09,253.47,458.09z M253.47,25.63c-29.15,0-57.43,5.71-84.05,16.97
				c-25.71,10.88-48.8,26.44-68.63,46.27s-35.4,42.92-46.27,68.63c-11.26,26.62-16.97,54.9-16.97,84.05
				c0,29.15,5.71,57.43,16.97,84.05c10.88,25.71,26.44,48.8,46.27,68.63s42.92,35.4,68.63,46.27c26.62,11.26,54.9,16.97,84.05,16.97
				c29.15,0,57.43-5.71,84.05-16.97c25.71-10.88,48.8-26.44,68.63-46.27s35.4-42.92,46.27-68.63c11.26-26.62,16.97-54.9,16.97-84.05
				c0-29.15-5.71-57.43-16.97-84.05c-10.88-25.71-26.44-48.8-46.27-68.63s-42.92-35.4-68.63-46.27
				C310.9,31.34,282.62,25.63,253.47,25.63z"/>
		</g>
		<g>
			<path class="st2" d="M253.47,441.47c-26.99,0-53.17-5.29-77.81-15.71c-23.81-10.07-45.18-24.48-63.54-42.84
				c-18.36-18.36-32.77-39.74-42.84-63.54c-10.42-24.65-15.71-50.83-15.71-77.81c0-26.99,5.29-53.17,15.71-77.81
				c10.07-23.81,24.48-45.18,42.84-63.54c18.36-18.36,39.74-32.77,63.54-42.84c24.65-10.42,50.83-15.71,77.81-15.71
				c26.99,0,53.17,5.29,77.81,15.71c23.81,10.07,45.18,24.48,63.54,42.84c18.36,18.36,32.77,39.74,42.84,63.54
				c10.42,24.65,15.71,50.83,15.71,77.81c0,26.99-5.29,53.17-15.71,77.81c-10.07,23.81-24.48,45.18-42.84,63.54
				c-18.36,18.36-39.74,32.77-63.54,42.84C306.64,436.18,280.46,441.47,253.47,441.47z M253.47,42.21
				c-26.91,0-53.02,5.27-77.6,15.67c-23.74,10.04-45.06,24.41-63.37,42.72c-18.31,18.31-32.68,39.63-42.72,63.37
				c-10.39,24.58-15.67,50.68-15.67,77.6c0,26.91,5.27,53.02,15.67,77.6c10.04,23.74,24.41,45.06,42.72,63.37
				c18.31,18.31,39.63,32.68,63.37,42.72c24.58,10.4,50.68,15.67,77.6,15.67c26.91,0,53.02-5.27,77.6-15.67
				c23.74-10.04,45.06-24.41,63.37-42.72c18.31-18.31,32.68-39.63,42.72-63.37c10.4-24.58,15.67-50.68,15.67-77.6
				c0-26.91-5.27-53.02-15.67-77.6c-10.04-23.74-24.41-45.06-42.72-63.37c-18.31-18.31-39.63-32.68-63.37-42.72
				C306.49,47.48,280.38,42.21,253.47,42.21z"/>
		</g>
		<g>
			<defs>
				
					<ellipse id="SVGID_1_" transform="matrix(0.2308 -0.973 0.973 0.2308 99.4966 301.9954)" cx="240.76" cy="88.07" rx="10.83" ry="10.83"/>
			</defs>
			<clipPath id="SVGID_2_">
				<use xlink:href="#SVGID_1_"  style="overflow:visible;"/>
			</clipPath>
			<g class="st5">
				
					<ellipse transform="matrix(0.225 -0.9744 0.9744 0.225 100.7775 302.8356)" class="st2" cx="240.76" cy="88.07" rx="14.63" ry="14.63"/>
			</g>
			<g class="st6">
				<g>
					<path class="st7" d="M240.76,102.57c0,0-0.02,0-0.06-0.01c-0.04,0.01-0.06,0.01-0.06,0.01H240.76z"/>
				</g>
				<g>
					<path class="st8" d="M249.27,98.19c-0.13-2.77-1.8-4.58-2.97-4.45c-1.16,0.13-3.87-0.26-3.87-0.26
						c-0.2-0.44-0.22-1.01-0.17-1.56c1.25-0.81,2.19-2.61,2.41-4.78c0.28-0.06,0.58-0.39,0.72-0.86c0.17-0.57,0.04-1.11-0.29-1.21
						c-0.12-0.04-0.25-0.01-0.38,0.07c0.02-2.98-0.08-5.25-3.97-5.25c-3.67,0-3.94,2.25-3.96,5.19c-0.1-0.09-0.22-0.13-0.34-0.11
						c-0.34,0.04-0.56,0.55-0.49,1.14c0.07,0.59,0.41,1.04,0.75,0.99c0.04-0.01,0.08-0.02,0.12-0.04c0.2,2.12,1.07,3.9,2.27,4.76
						c0.07,0.59,0.05,1.19-0.16,1.66c0,0-2.71,0.39-3.87,0.26c-1.16-0.13-2.84,1.68-2.97,4.45c-0.12,2.63,7.78,4.22,8.57,4.37
						C241.48,102.41,249.39,100.82,249.27,98.19z"/>
				</g>
			</g>
		</g>
		<g>
			<defs>
				<circle id="SVGID_3_" cx="156.95" cy="384.22" r="16.48"/>
			</defs>
			<clipPath id="SVGID_4_">
				<use xlink:href="#SVGID_3_"  style="overflow:visible;"/>
			</clipPath>
			<g class="st9">
				<circle class="st2" cx="156.95" cy="384.22" r="22.27"/>
			</g>
			<g class="st10">
				<g>
					<path class="st7" d="M156.95,406.29c0,0-0.03-0.01-0.1-0.02c-0.06,0.01-0.1,0.02-0.1,0.02H156.95z"/>
				</g>
				<g>
					<path class="st8" d="M169.9,399.62c-0.2-4.22-2.75-6.96-4.51-6.77c-1.77,0.2-5.89-0.39-5.89-0.39
						c-0.3-0.67-0.34-1.53-0.26-2.38c1.91-1.24,3.33-3.97,3.66-7.28c0.43-0.09,0.88-0.6,1.09-1.3c0.26-0.87,0.07-1.69-0.44-1.84
						c-0.18-0.06-0.38-0.01-0.57,0.1c0.03-4.53-0.12-8-6.03-8c-5.59,0-6,3.42-6.03,7.9c-0.16-0.13-0.34-0.2-0.51-0.17
						c-0.52,0.06-0.86,0.84-0.75,1.74c0.11,0.9,0.62,1.58,1.14,1.51c0.07-0.01,0.13-0.03,0.19-0.06c0.3,3.23,1.64,5.93,3.45,7.24
						c0.1,0.89,0.08,1.82-0.24,2.53c0,0-4.12,0.59-5.89,0.39c-1.77-0.2-4.32,2.55-4.51,6.77c-0.19,4.01,11.84,6.42,13.05,6.65
						C158.06,406.04,170.08,403.63,169.9,399.62z"/>
				</g>
			</g>
		</g>
		<g>
			<defs>
				
					<ellipse id="SVGID_5_" transform="matrix(0.1608 -0.987 0.987 0.1608 154.0675 584.2722)" cx="420.61" cy="201.54" rx="12.24" ry="12.24"/>
			</defs>
			<clipPath id="SVGID_6_">
				<use xlink:href="#SVGID_5_"  style="overflow:visible;"/>
			</clipPath>
			<g class="st11">
				
					<ellipse transform="matrix(0.1778 -0.9841 0.9841 0.1778 147.5049 579.6172)" class="st2" cx="420.61" cy="201.54" rx="16.54" ry="16.54"/>
			</g>
			<g class="st12">
				<g>
					<path class="st7" d="M420.61,217.93c0,0-0.03,0-0.07-0.01c-0.05,0.01-0.07,0.01-0.07,0.01H420.61z"/>
				</g>
				<g>
					<path class="st8" d="M430.23,212.98c-0.15-3.13-2.04-5.17-3.35-5.03c-1.31,0.15-4.37-0.29-4.37-0.29
						c-0.22-0.5-0.25-1.14-0.19-1.76c1.42-0.92,2.47-2.95,2.72-5.41c0.32-0.06,0.65-0.45,0.81-0.97c0.19-0.64,0.05-1.26-0.32-1.37
						c-0.14-0.04-0.28-0.01-0.42,0.08c0.02-3.37-0.09-5.94-4.48-5.94c-4.15,0-4.46,2.54-4.48,5.87c-0.12-0.1-0.25-0.15-0.38-0.13
						c-0.39,0.05-0.64,0.63-0.56,1.29s0.46,1.17,0.85,1.12c0.05-0.01,0.1-0.02,0.14-0.04c0.23,2.4,1.22,4.4,2.56,5.38
						c0.07,0.66,0.06,1.35-0.18,1.88c0,0-3.06,0.44-4.37,0.29c-1.31-0.15-3.21,1.89-3.35,5.03c-0.14,2.98,8.8,4.77,9.69,4.94
						C421.44,217.75,430.37,215.95,430.23,212.98z"/>
				</g>
			</g>
		</g>
		<g>
			<path class="st8" d="M98.57,303.71c0,2.86-2.32,5.18-5.18,5.18c-2.86,0-5.18-2.32-5.18-5.18c0-2.86,2.32-5.18,5.18-5.18
				C96.25,298.53,98.57,300.85,98.57,303.71z"/>
		</g>
		<g>
			<path class="st8" d="M430.5,254.27c0,2.86-2.32,5.18-5.18,5.18c-2.86,0-5.18-2.32-5.18-5.18c0-2.86,2.32-5.18,5.18-5.18
				C428.18,249.09,430.5,251.41,430.5,254.27z"/>
		</g>
		<g>
			<path class="st8" d="M303.55,78.79c-1.11,1.39-3.15,1.62-4.54,0.51c-1.39-1.11-1.62-3.15-0.51-4.54
				c1.11-1.39,3.15-1.62,4.54-0.51C304.44,75.36,304.66,77.39,303.55,78.79z"/>
		</g>
		<g>
			<path class="st8" d="M286.79,391.2c0.3,1.76-0.88,3.43-2.64,3.73c-1.76,0.3-3.43-0.88-3.73-2.64c-0.3-1.76,0.88-3.43,2.64-3.73
				C284.82,388.26,286.49,389.44,286.79,391.2z"/>
		</g>
		<g>
			<path class="st8" d="M229.35,438.76c0.3,1.76-0.88,3.43-2.64,3.73c-1.76,0.3-3.43-0.88-3.73-2.64c-0.3-1.76,0.88-3.43,2.64-3.73
				C227.37,435.82,229.05,437,229.35,438.76z"/>
		</g>
		<g>
			<path class="st8" d="M452.99,278.21c0.3,1.76-0.88,3.43-2.64,3.73c-1.76,0.3-3.43-0.88-3.73-2.64c-0.3-1.76,0.88-3.43,2.64-3.73
				C451.02,275.26,452.69,276.45,452.99,278.21z"/>
		</g>
		<g>
			<path class="st8" d="M126.71,87.52c0.3,1.76-0.88,3.43-2.64,3.73c-1.76,0.3-3.43-0.88-3.73-2.64c-0.3-1.76,0.88-3.43,2.64-3.73
				C124.73,84.58,126.41,85.76,126.71,87.52z"/>
		</g>
	</g>
	<g>
		<defs>
			<circle id="SVGID_7_" cx="54.78" cy="211.9" r="8"/>
		</defs>
		<clipPath id="SVGID_8_">
			<use xlink:href="#SVGID_7_"  style="overflow:visible;"/>
		</clipPath>
		<g class="st13">
			<circle class="st2" cx="54.78" cy="211.9" r="10.82"/>
		</g>
		<g class="st14">
			<g>
				<path class="st7" d="M54.78,222.61c0,0-0.02,0-0.05-0.01c-0.03,0.01-0.05,0.01-0.05,0.01H54.78z"/>
			</g>
			<g>
				<path class="st8" d="M61.07,219.38c-0.1-2.05-1.33-3.38-2.19-3.29c-0.86,0.1-2.86-0.19-2.86-0.19
					c-0.15-0.33-0.17-0.74-0.13-1.15c0.93-0.6,1.62-1.93,1.78-3.54c0.21-0.04,0.43-0.29,0.53-0.63c0.13-0.42,0.03-0.82-0.21-0.9
					c-0.09-0.03-0.18-0.01-0.28,0.05c0.01-2.2-0.06-3.88-2.93-3.88c-2.71,0-2.91,1.66-2.93,3.84c-0.08-0.06-0.16-0.1-0.25-0.08
					c-0.25,0.03-0.42,0.41-0.36,0.85c0.05,0.44,0.3,0.77,0.55,0.74c0.03,0,0.06-0.01,0.09-0.03c0.15,1.57,0.79,2.88,1.68,3.52
					c0.05,0.43,0.04,0.88-0.12,1.23c0,0-2,0.29-2.86,0.19s-2.1,1.24-2.19,3.29c-0.09,1.95,5.75,3.12,6.34,3.23
					C55.32,222.49,61.16,221.32,61.07,219.38z"/>
			</g>
		</g>
	</g>
	<path class="st15" d="M395.58,245.77c0-77.3-62.66-139.96-139.96-139.96s-139.96,62.66-139.96,139.96
		c0,33.74,11.94,64.7,31.83,88.87h216.27C383.64,310.46,395.58,279.51,395.58,245.77z"/>
	<g>
		<g>
			<defs>
				<path id="XMLID_12_" d="M358.17,274.86c-8.1-19.79-17.32-23.5-17.32-23.5s0.29-0.39,0.75-1.08c3.76,1.62,7,4.62,9.05,8.03
					c0.16,0.27,0.59,0.02,0.43-0.25c-2.09-3.47-5.38-6.53-9.2-8.2c0.2-0.3,0.42-0.65,0.65-1.02c2.86,0.58,5.64,1.68,8.23,2.95
					c0.28,0.14,0.54-0.29,0.25-0.43c-2.59-1.28-5.36-2.37-8.21-2.97c5.02-8.24,15.79-30.96-15.77-33.56
					c1.96-2.14,4.7-3.49,7.41-4.46c0.3-0.11,0.17-0.58-0.13-0.48c-2.71,0.97-5.41,2.28-7.42,4.37c0.3-1.39,0.77-2.76,1.29-4.07
					c0.12-0.3-0.36-0.42-0.48-0.13c-0.58,1.44-1.08,2.93-1.38,4.46c-0.49-0.46-1.62-1.49-3.23-2.77c-0.86-1.29-1.85-2.48-2.88-3.55
					c-5.38-5.55-12.93-7.4-20.47-6.67c-0.12,0.01-0.19,0.09-0.22,0.18c-4.54-0.04-9.15,1.28-13.43,4.85
					c-5.28,4.41-6.04,11.18-4.69,17.69c0.08,1.03,0.27,2.03,0.38,2.7c0.79,4.87,2.92,9.45,5.52,13.64
					c-3.23,0.55-9.05,2.49-7.84,9.42c1.66,9.49,9.46,21.44,0.21,22.69c-9.25,1.24-13.7,22.42,19.04,42.2
					c32.75,19.78,63.89,1.05,50.97-14.61C349.7,300.3,366.28,294.65,358.17,274.86z M282.63,228.62c1.68,4.84,4.3,9.18,6.71,11.78
					c0,0-0.6,0.01-1.5,0.13C285.54,236.84,283.62,232.86,282.63,228.62z M320.07,208.76c0.57,0.6,1.13,1.25,1.66,1.93
					c-4.56-3.42-11.81-7.88-19.55-8.8C308.85,201.75,315.33,203.76,320.07,208.76z"/>
			</defs>
			<use xlink:href="#XMLID_12_"  style="overflow:visible;fill:#4375F1;"/>
			<clipPath id="XMLID_17_">
				<use xlink:href="#XMLID_12_"  style="overflow:visible;"/>
			</clipPath>
			<path class="st16" d="M326.84,241.38c0,0-3.57,1.82-4.37,3.45c-0.8,1.63,0.85,11.86,0.85,11.86l20.79,16.5
				c0,0,5.61,42.89-8.25,54.44c-13.86,11.55-65-40.58-65-40.58l14.52-18.48l13.53-4.29l2.31-9.9c0,0-14.51-6.87-2.8-30.49
				c11.71-23.62,0,0,0,0L326.84,241.38"/>
			<path class="st17" d="M300.55,220.06l-7.26-1.31c0,0,2.64,3.96,9.9,2.31C310.45,219.41,300.55,220.06,300.55,220.06"/>
		</g>
		<g>
			<defs>
				<path id="XMLID_11_" d="M299.89,269.56l-2.97-5.28c0,0-8.62,0.85-11.75,4.5c-3.13,3.65-22.99,39.99-22.99,39.99
					s-8.6,4.08-15.68,7.57c1.76,1.1,3.79,3.12,4.95,7.04c6.21-2.25,14.34-5.67,17.28-7.78c0,0,19.17-14.68,21.26-24.59
					C292.08,281.1,299.89,269.56,299.89,269.56z"/>
			</defs>
			<use xlink:href="#XMLID_11_"  style="overflow:visible;fill:#E2B187;"/>
			<clipPath id="XMLID_18_">
				<use xlink:href="#XMLID_11_"  style="overflow:visible;"/>
			</clipPath>
			<path class="st18" d="M281.08,306.19c0,0-7.92-6.27,4.29-22.44c11.13-14.74,9.24,4.62,9.24,4.62l-8.13,17.7L281.08,306.19z"/>
		</g>
		<path class="st19" d="M246.5,316.34c-8.85,4.35-18.92,9.31-19.5,9.6c-1.04,0.52-9.39-2.09-10.44-1.57
			c-1.04,0.52-6.78,3.65-8.87,4.17c-2.09,0.52,5.22,1.57,8.35,0c3.13-1.57,4.17,1.57,6.78,2.09c2.61,0.52,4.17,1.04,5.74,0
			c0,0,12.04-3.34,22.88-7.26C250.3,319.46,248.27,317.44,246.5,316.34z"/>
		<g>
			<defs>
				<path id="XMLID_10_" d="M305.27,251.32c0,0,1.57,5.74-5.22,12.52l-3.65,6.78l7.83,8.87l7.83,2.61l16.7-19.31l-7.31-4.7
					l-2.09-21.39L305.27,251.32z"/>
			</defs>
			<use xlink:href="#XMLID_10_"  style="overflow:visible;fill:#EDBA8F;"/>
			<clipPath id="XMLID_19_">
				<use xlink:href="#XMLID_10_"  style="overflow:visible;"/>
			</clipPath>
			<path class="st20" d="M304.18,255.05c0,0,14.52-0.66,14.85-9.57C319.36,236.57,302.53,251.42,304.18,255.05z"/>
		</g>
		<g>
			<defs>
				<path id="XMLID_9_" d="M302.69,260.71c0,0,3.1,8.88,18.75-2.6c0,0,9.76,5.2,12.43,6.84c5.94,3.63,7.2,3.02,8.77,8.76
					l-13.89,45.97l4.7,18.26l-50.11,0.08l4.45-20.3c0.48-5.12-1.51-10-5.15-13.52c-7.16-6.93,2.44-18.39,10-39.26
					C293.25,263.22,302.69,260.71,302.69,260.71z"/>
			</defs>
			<use xlink:href="#XMLID_9_"  style="overflow:visible;fill:#DC466F;"/>
			<clipPath id="XMLID_20_">
				<use xlink:href="#XMLID_9_"  style="overflow:visible;"/>
			</clipPath>
			<path class="st21" d="M328.26,282.1c0,0-8.91,11.55-7.92,33.65c0,0-27.48,9.46-39.15,8.85c-11.67-0.61,1.53,7.97,1.53,7.97
				s32.99,2.51,48.17-7.98S328.26,282.1,328.26,282.1"/>
		</g>
		<path class="st22" d="M283.75,325.7l-12.92-5.5l-5.39-4.05c-0.34-0.26-0.76-0.38-1.19-0.34l-6.22,0.57
			c-0.25,0.02-0.49,0.12-0.69,0.27c-1.09,0.83-4.62,3.55-3.73,3.55c1.04,0,3.13-0.52,4.7-1.57c0,0,4.7,0,5.22-0.52
			c0,0,2.09,2.09,3.13,2.61c1.04,0.52,0.52,0,0.52,0l-6.99,2.12c-0.36,0.11-0.67,0.34-0.89,0.65c-0.88,1.28-3.28,4.73-4.13,5.58
			c0,0,2.61,1.04,4.7-2.09c2.09-3.13,7.83-3.13,8.35-2.61c0,0-7.31,4.17-9.39,8.35c0,0,0.99,2.57,2.61,0.52
			c3.14-3.96,7.27-5.2,8.87-5.74l-2.97,3.4c-0.37,0.43-0.33,1.08,0.1,1.45l2.87,2.46c0,0,0.52-2.09-0.52-3.13l2.61-2.61
			c0,0,2.88,5.74,11.35,2.35V325.7z"/>
		<path class="st22" d="M306.52,321.59c-11.14,2.33-23.65,4.24-23.65,4.24l0.23,5.57c11.43,0.25,20.63-0.46,27.84-1.53
			C310.69,325.61,308.57,323.07,306.52,321.59z"/>
		<path class="st22" d="M340.47,268.9c-6.74-2.92-12.44,13.15-12.44,13.15c-7.31,15.13-5.54,35.01-5.54,35.01
			c-2.43,1.42-8.93,3.05-15.97,4.52c2.05,1.48,4.17,4.02,4.42,8.29c15.03-2.23,21.47-6.02,21.47-6.02
			C338.67,314.46,347.22,271.83,340.47,268.9z"/>
		<g>
			<defs>
				<path id="XMLID_8_" d="M308.14,211.82c0,0-14.52,10.89-12.61,27.64c0.87,7.65,2.6,10.05,5.68,12.28c3.63,2.64,15.73,1,18.88-5.1
					l1.67-4.94c0,0,2.96,2.65,5.95-1.3s2.35-10.22-1.95-7.27l2.67-7.91l-2.61-6.94L308.14,211.82z"/>
			</defs>
			<use xlink:href="#XMLID_8_"  style="overflow:visible;fill:#EDBA8F;"/>
			<clipPath id="XMLID_21_">
				<use xlink:href="#XMLID_8_"  style="overflow:visible;"/>
			</clipPath>
			<path class="st23" d="M297.73,220.81c0,0,5.45,2.23,10.4-7.34c0,0,1.32,15.51,11.55,15.18l-2.97-2.64c0,0,1.18,10.89,8.01,6.93
				c6.84-3.96-13.95-24.75-13.95-24.75l-13.88,4.95L297.73,220.81"/>
		</g>
		<path class="st24" d="M328.26,219.08l-10.56-5.28l-14.85-3.63c0,0-18.15,6.27-9.9,9.9c7.24,3.18,13.46-4.05,14.88-5.87
			c-0.15,2.24,0.05,5.77,2.13,8.79c1.78,2.59,4.59,4.33,8.36,5.21c-0.18,5.12,5.98,6.05,5.98,6.05l2.64-1.98l5.28-1.65
			L328.26,219.08z M310.24,222.81c-1.23-1.79-1.78-3.76-1.99-5.53c1.61,6.11,10.12,10.37,10.12,10.37
			c-0.01,0.07-0.01,0.14-0.02,0.22C314.68,227.02,311.96,225.32,310.24,222.81z"/>
		<path class="st25" d="M318.37,208.34c0,0,3.96-1.8,7.92,6.12c0,0,4.95,11.55,0,22.11h-0.99
			C325.3,236.57,327.27,217.07,318.37,208.34z"/>
		<circle class="st26" cx="326.28" cy="237.56" r="4.62"/>
		<path class="st25" d="M309.77,233.76c-0.26,1.06-0.77,1.85-1.12,1.76c-0.35-0.09-0.43-1.02-0.16-2.08
			c0.26-1.06,0.77-1.85,1.12-1.76C309.96,231.77,310.03,232.7,309.77,233.76z"/>
		<path class="st25" d="M300.88,232c-0.09,1.09-0.46,1.95-0.82,1.92c-0.36-0.03-0.59-0.94-0.5-2.03c0.09-1.09,0.46-1.95,0.82-1.92
			C300.74,230.01,300.97,230.91,300.88,232z"/>
		<path class="st27" d="M299.89,245.43c0,0,6.1,1.74,10.89-3.05c0,0,0,5.66-7.84,6.53C302.94,248.91,301.63,248.91,299.89,245.43z"
			/>
		<path class="st24" d="M299.01,226.86c0.07-0.3,0.23-0.58,0.43-0.83c0.21-0.25,0.48-0.45,0.8-0.58c0.31-0.12,0.66-0.24,0.99-0.16
			c0.17,0.03,0.32,0.1,0.47,0.17c0.14,0.09,0.27,0.19,0.39,0.32l-0.02,0.06c-0.17,0.05-0.33,0.06-0.47,0.07
			c-0.15,0.03-0.28,0.02-0.42,0.03c-0.13,0.01-0.26,0-0.39,0c-0.13-0.02-0.26-0.01-0.39,0.01c-0.26,0.05-0.5,0.16-0.73,0.31
			c-0.23,0.15-0.43,0.37-0.6,0.61L299.01,226.86z"/>
		<path class="st24" d="M312.31,226.86c-0.07-0.3-0.23-0.58-0.43-0.83c-0.21-0.25-0.48-0.45-0.8-0.58
			c-0.31-0.12-0.66-0.24-0.99-0.16c-0.17,0.03-0.32,0.1-0.47,0.17c-0.14,0.09-0.27,0.19-0.39,0.32l0.02,0.06
			c0.17,0.05,0.33,0.06,0.47,0.07c0.15,0.03,0.28,0.02,0.42,0.03c0.13,0.01,0.26,0,0.39,0c0.13-0.02,0.26-0.01,0.39,0.01
			c0.26,0.05,0.5,0.16,0.73,0.31c0.23,0.15,0.43,0.37,0.6,0.61L312.31,226.86z"/>
		<path class="st28" d="M302.6,241.38c0,0-4.51-1.74-3.47-2.43c0.83-0.55,2.74-3.5,3.5-5.22c0.09-0.21,0.41-0.16,0.43,0.07
			C303.2,235.58,303.36,239.12,302.6,241.38z"/>
		<g>
			<circle class="st25" cx="326.28" cy="237.56" r="1.98"/>
			<g>
				<path class="st25" d="M322.07,247.13h-14.92v-0.76h14.52c0.6-1.15,3.7-7.14,4-7.81l0.61,0.34c-0.34,0.77-3.96,7.75-4.12,8.05
					L322.07,247.13z"/>
			</g>
			<ellipse class="st25" cx="306.49" cy="246.63" rx="1.98" ry="0.82"/>
		</g>
		<path class="st29" d="M369.51,339.18H142.17c-1.64,0-2.97-1.33-2.97-2.97l0,0c0-1.64,1.33-2.97,2.97-2.97h227.34
			c1.64,0,2.97,1.33,2.97,2.97l0,0C372.48,337.85,371.15,339.18,369.51,339.18z"/>
		<g>
			<defs>
				<path id="XMLID_7_" d="M156.92,261l1.94,56.51c0.12,3.51,3,6.29,6.5,6.29h81.27c3.68,0,6.63-3.05,6.5-6.73l-1.94-56.51
					c-0.12-3.51-3-6.29-6.5-6.29h-81.27C159.74,254.27,156.79,257.32,156.92,261z"/>
			</defs>
			<use xlink:href="#XMLID_7_"  style="overflow:visible;fill:#838BC0;"/>
			<clipPath id="XMLID_22_">
				<use xlink:href="#XMLID_7_"  style="overflow:visible;"/>
			</clipPath>
			<path class="st30" d="M211.13,297.94c0,0-6.27,24.42,0,31.35c6.27,6.93-34.64-2.64-34.64-2.64s5.61-20.13,21.12-28.71
				c15.51-8.58,0,0,0,0l7.26,4.62L211.13,297.94"/>
		</g>
		<path class="st31" d="M197.6,297.94h13.53c0,0-20.46,32.99-2.14,35.3h-28.21C180.78,333.24,175.17,320.05,197.6,297.94z"/>
		<path class="st27" d="M202.22,274.96c0-0.63,0.1-1.23,0.28-1.8c-0.09,0-0.19-0.01-0.28-0.01c-3.85,0-6.97,3.12-6.97,6.97
			c0,3.85,3.12,6.97,6.97,6.97c3.62,0,6.59-2.75,6.93-6.28c-0.32,0.05-0.66,0.09-1,0.09C204.88,280.9,202.22,278.24,202.22,274.96z"
			/>
	</g>
	<g>
		<defs>
			
				<ellipse id="SVGID_9_" transform="matrix(0.0308 -0.9995 0.9995 0.0308 -30.0329 299.4363)" cx="139.38" cy="165.2" rx="68.66" ry="68.66"/>
		</defs>
		<use xlink:href="#SVGID_9_"  style="overflow:visible;fill:#819FDE;"/>
		<clipPath id="SVGID_10_">
			<use xlink:href="#SVGID_9_"  style="overflow:visible;"/>
		</clipPath>
		
			<ellipse transform="matrix(0.7071 -0.7071 0.7071 0.7071 -75.9931 146.9443)" class="st32" cx="139.38" cy="165.2" rx="83.65" ry="83.65"/>
		<g class="st33">
			<path class="st34" d="M132.22,171.03c0,0-17.91,0-24.18,3.13c-6.27,3.13-9.4,11.2-8.06,16.57c1.34,5.37-5.82,18.81,1.79,25.97
				c6.84,6.43,12.23,5.65,14.56,4.77c0.26-0.1,0.49-0.2,0.67-0.29c1.79-0.9,0,23.74,0,23.74s45.23,2.69,47.92,0
				c2.69-2.69,3.58-59.11-2.69-65.38s-23.74-8.51-23.74-8.51H132.22z"/>
			<g>
				<defs>
					<path id="XMLID_3_" d="M130.65,155.13l-0.67,15.9l14.7,9.75c0.57,0.37,1.34,0.04,1.46-0.63l2.42-12.93l-14.33-17.47
						L130.65,155.13z"/>
				</defs>
				<use xlink:href="#XMLID_3_"  style="overflow:visible;fill:#E7B59D;"/>
				<clipPath id="XMLID_23_">
					<use xlink:href="#XMLID_3_"  style="overflow:visible;"/>
				</clipPath>
				<path class="st35" d="M129.53,165.2c0,0,2.24,1.79,4.03,0c0,0,10.3,17.47,19.26,14.33c8.96-3.13-9.4-17.47-9.4-17.47l-9.38-7.09
					l-5.4,3.96L129.53,165.2z"/>
			</g>
			<path class="st36" d="M131.54,149.31c7.17-0.45,8.06-12.09,8.06-13.44c0-1.34,11.2-4.93,13.88-3.58
				c2.56,1.28,3.24,9.49,3.36,10.08c3.94-2.38,7.39-10.89,5.6-15.9c-2.24-6.27-4.93-4.03-6.72-2.69c-1.79,1.34-1.79-4.93-11.2-10.3
				c-9.4-5.37,1.34,6.27-9.85,5.37c-11.2-0.9-12.09,10.3-12.09,10.3c-5.82,0-9.85,4.93-5.37,9.85c4.48,4.93,0.9,5.37,0,9.85
				c-0.47,2.34,4.06,3.33,8.5,3.75C127,150.89,128.86,149.47,131.54,149.31z"/>
			<path class="st37" d="M143.19,156.02c8.24,3.58,15.9-0.57,18.64-2.38c-1.99-3.16-3.7-6.32-3.86-9.27
				c-0.08-1.44-0.28-2.78-0.57-4.01c0.04-0.02,0.07-0.05,0.11-0.07c-0.12-0.59-1.46-6.73-4.02-8.01
				c-2.69-1.34-13.88,2.24-13.88,3.58c0,1.07-0.57,8.64-4.4,11.93C136.59,150.98,139,154.2,143.19,156.02z"/>
			<path class="st36" d="M161.83,153.65c-2.74,1.81-10.4,5.96-18.64,2.38c-4.18-1.82-6.59-5.04-7.98-8.23
				c-0.99,0.85-2.19,1.42-3.66,1.51c-2.68,0.17-4.55,1.59-5.83,3.3c4.07,0.38,8.07,0.28,8.07,0.28
				c2.24,25.53,29.11,23.74,33.59,17.02C170.3,165.52,165.57,159.6,161.83,153.65z"/>
			
				<rect x="117.45" y="147.09" transform="matrix(-0.9985 -0.0555 0.0555 -0.9985 246.8468 311.6188)" class="st38" width="20.6" height="10.58"/>
			<path class="st37" d="M116.32,165.43c0,0,0-13.88,2.24-15.67c2.24-1.79,7.61-8.51,10.3-6.72c2.69,1.79,1.34,2.69,3.13,3.58
				c1.79,0.9,0.9,2.24,2.24,3.13c1.34,0.9,3.13,4.48,2.24,4.48c-0.9,0-4.03,0-4.03,0s-6.27,11.64-8.96,11.2l-0.45,1.79h-6.72V165.43
				z"/>
			<path class="st37" d="M122.81,167c0,0,0.9,44.34-3.13,47.02c-4.03,2.69-14.78-0.45-12.54-9.4c2.24-8.96,10.3-41.65,10.3-41.65
				L122.81,167z"/>
			<path class="st39" d="M143.41,158.93c0,0,7.83,2.35,11.41,1.56c0.28-0.06,0.52,0.21,0.42,0.48c-0.39,1.09-1.09,3.14-1.09,3.78
				C154.16,165.65,146.1,164.31,143.41,158.93z"/>
			<path class="st40" d="M152.19,145.5c0,0,10.46,6.29,7.63,9c-2.84,2.71-5.03,2.28-5.03,2.28S151.12,147.1,152.19,145.5z"/>
			<path class="st41" d="M143.41,147.74c-0.04-0.56,0.11-1.12,0.45-1.62c0.34-0.49,0.96-0.87,1.6-0.9c0.65-0.06,1.21,0.2,1.7,0.47
				c0.23,0.16,0.46,0.33,0.65,0.52c0.19,0.21,0.37,0.41,0.52,0.64c-0.28-0.07-0.52-0.17-0.76-0.27c-0.24-0.1-0.49-0.16-0.72-0.25
				c-0.47-0.12-0.92-0.26-1.34-0.21c-0.41,0.03-0.78,0.18-1.14,0.48C144.04,146.88,143.72,147.28,143.41,147.74z"/>
			<path class="st41" d="M157.96,143.42c-0.16-0.42-0.47-0.78-0.89-1.03c-0.42-0.24-1-0.31-1.48-0.11c-0.5,0.18-0.82,0.56-1.08,0.93
				c-0.11,0.2-0.22,0.4-0.3,0.61c-0.07,0.22-0.13,0.43-0.16,0.65c0.18-0.15,0.32-0.3,0.46-0.46c0.14-0.15,0.3-0.28,0.44-0.43
				c0.3-0.25,0.59-0.51,0.9-0.62c0.31-0.12,0.63-0.14,1-0.04C157.21,143,157.58,143.19,157.96,143.42z"/>
			<g>
				<path class="st36" d="M141.07,144.27c0.11-0.72,0.43-1.45,0.85-2.04c1.15-1.62,3.02-1.82,4.84-1.45
					c0.85,0.17,1.03-1.16,0.19-1.33c-2.16-0.44-4.41-0.1-5.88,1.68c-0.68,0.82-1.18,1.9-1.33,2.96
					C139.61,144.94,140.95,145.13,141.07,144.27L141.07,144.27z"/>
			</g>
			<g>
				<path class="st36" d="M152.56,138.69c0.49-0.35,1.1-0.57,1.69-0.65c1.6-0.23,2.78,0.75,3.59,2.04c0.38,0.6,1.27-0.05,0.89-0.64
					c-0.97-1.53-2.43-2.66-4.31-2.53c-0.87,0.06-1.79,0.38-2.5,0.89C151.34,138.21,151.98,139.1,152.56,138.69L152.56,138.69z"/>
			</g>
		</g>
	</g>
	<g>
		<g>
			<defs>
				<path id="XMLID_2_" d="M293.87,96.47H416.7c2.15,0,3.89,1.74,3.89,3.89v30.99c0,1.29-0.64,2.5-1.71,3.22l-19.64,13.27
					c-1.02,0.69-2.34-0.28-1.98-1.46l3.93-12.96H293.87c-2.15,0-3.89-1.74-3.89-3.89v-29.17C289.99,98.21,291.73,96.47,293.87,96.47
					z"/>
			</defs>
			<use xlink:href="#XMLID_2_"  style="overflow:visible;fill:#9F71AC;"/>
			<clipPath id="XMLID_26_">
				<use xlink:href="#XMLID_2_"  style="overflow:visible;"/>
			</clipPath>
			<polygon class="st42" points="394.83,137.02 399.18,133.39 411.88,133.39 395.56,142.46 			"/>
		</g>
		<path class="st27" d="M304.83,106.36h102.68c0.91,0,1.65-0.74,1.65-1.65l0,0c0-0.91-0.74-1.65-1.65-1.65H304.83
			c-0.91,0-1.65,0.74-1.65,1.65l0,0C303.18,105.63,303.92,106.36,304.83,106.36z"/>
		<path class="st27" d="M304.83,114.72h102.68c0.91,0,1.65-0.74,1.65-1.65l0,0c0-0.91-0.74-1.65-1.65-1.65H304.83
			c-0.91,0-1.65,0.74-1.65,1.65l0,0C303.18,113.98,303.92,114.72,304.83,114.72z"/>
		<path class="st27" d="M357.33,123.07h50.66c0.64,0,1.17-0.52,1.17-1.17v-0.97c0-0.64-0.52-1.17-1.17-1.17h-50.66
			c-0.64,0-1.17,0.52-1.17,1.17v0.97C356.17,122.55,356.69,123.07,357.33,123.07z"/>
	</g>
	<g>
		<defs>
			<path id="XMLID_14_" d="M243.16,402.96h25.57c0.93,0,1.69,0.76,1.69,1.69v13.48c0,0.56-0.28,1.09-0.74,1.4l-8.54,5.77
				c-0.44,0.3-1.02-0.12-0.86-0.64l1.71-5.64h-18.82c-0.93,0-1.69-0.76-1.69-1.69v-12.69C241.47,403.72,242.22,402.96,243.16,402.96
				z"/>
		</defs>
		<use xlink:href="#XMLID_14_"  style="overflow:visible;fill:#819FDE;"/>
		<clipPath id="XMLID_27_">
			<use xlink:href="#XMLID_14_"  style="overflow:visible;"/>
		</clipPath>
	</g>
	<g>
		<defs>
			<path id="XMLID_15_" d="M425.18,152.62h15.59c0.57,0,1.03,0.46,1.03,1.03v8.22c0,0.34-0.17,0.66-0.45,0.85l-5.21,3.52
				c-0.27,0.18-0.62-0.08-0.53-0.39l1.04-3.44h-11.48c-0.57,0-1.03-0.46-1.03-1.03v-7.74C424.15,153.08,424.61,152.62,425.18,152.62
				z"/>
		</defs>
		<use xlink:href="#XMLID_15_"  style="overflow:visible;fill:#819FDE;"/>
		<clipPath id="XMLID_28_">
			<use xlink:href="#XMLID_15_"  style="overflow:visible;"/>
		</clipPath>
	</g>
	<g>
		<g>
			<defs>
				<path id="XMLID_1_" d="M378.72,139.74H245.08c-2.33,0-4.23,1.89-4.23,4.23v33.72c0,1.4,0.7,2.72,1.86,3.5l21.37,14.44
					c1.11,0.75,2.55-0.31,2.16-1.59l-4.27-14.11h116.75c2.33,0,4.23-1.89,4.23-4.23v-31.73
					C382.94,141.63,381.05,139.74,378.72,139.74z"/>
			</defs>
			<use xlink:href="#XMLID_1_"  style="overflow:visible;fill:#E6B851;"/>
			<clipPath id="XMLID_29_">
				<use xlink:href="#XMLID_1_"  style="overflow:visible;"/>
			</clipPath>
			<polygon class="st43" points="268.87,183.86 264.14,179.91 250.32,179.91 268.09,189.78 			"/>
		</g>
		<path class="st27" d="M366.8,150.5H255.08c-0.99,0-1.79-0.8-1.79-1.79l0,0c0-0.99,0.8-1.79,1.79-1.79H366.8
			c0.99,0,1.79,0.8,1.79,1.79l0,0C368.59,149.7,367.79,150.5,366.8,150.5z"/>
		<path class="st27" d="M366.8,159.59H255.08c-0.99,0-1.79-0.8-1.79-1.79l0,0c0-0.99,0.8-1.79,1.79-1.79H366.8
			c0.99,0,1.79,0.8,1.79,1.79l0,0C368.59,158.79,367.79,159.59,366.8,159.59z"/>
		<path class="st27" d="M309.67,168.68h-55.11c-0.7,0-1.27-0.57-1.27-1.27v-1.05c0-0.7,0.57-1.27,1.27-1.27h55.11
			c0.7,0,1.27,0.57,1.27,1.27v1.05C310.94,168.12,310.37,168.68,309.67,168.68z"/>
	</g>
	<g>
		<defs>
			
				<ellipse id="SVGID_11_" transform="matrix(0.7071 -0.7071 0.7071 0.7071 -155.0449 377.1759)" cx="377.77" cy="375.74" rx="56.97" ry="56.97"/>
		</defs>
		<clipPath id="SVGID_12_">
			<use xlink:href="#SVGID_11_"  style="overflow:visible;"/>
		</clipPath>
		
			<ellipse transform="matrix(0.7071 -0.7071 0.7071 0.7071 -155.0449 377.1759)" class="st44" cx="377.77" cy="375.74" rx="70.45" ry="70.45"/>
		<g class="st45">
			<g>
				<defs>
					<path id="XMLID_5_" d="M382.6,381.85c-4.32,9.92-11.95,18.06-17.8,10.17c-4.36-5.88-0.95-13.88,1.07-17.57
						c6.1-1.98,12.3-2.78,12.3-2.78h5.8c0,0,3.44,0,7.73,0.27C388.61,373.67,384.85,376.69,382.6,381.85z"/>
				</defs>
				<use xlink:href="#XMLID_5_"  style="overflow:visible;fill:#E7B59D;"/>
				<clipPath id="XMLID_30_">
					<use xlink:href="#XMLID_5_"  style="overflow:visible;"/>
				</clipPath>
				<path class="st46" d="M371.16,371.67c0,0.51-0.25,8.39-0.25,8.39l-4.83-8.14L371.16,371.67z"/>
			</g>
			<path class="st47" d="M356.2,379.55c2.21-2.21,5.92-3.88,9.66-5.09c-2.02,3.69-5.43,11.69-1.07,17.57
				c5.85,7.88,13.48-0.25,17.8-10.17c2.25-5.16,6.01-8.18,9.1-9.9c5.13,0.33,11.49,1.05,14.65,2.63c5.8,2.9,8.7,10.36,7.46,15.33
				c-1.24,4.97,5.39,17.41-1.66,24.04c-6.33,5.95-11.32,5.23-13.47,4.41c-0.24-0.09-0.45-0.19-0.62-0.27c-1.66-0.83,0,21.96,0,21.96
				s-41.86,2.49-44.34,0S350.4,385.35,356.2,379.55z"/>
			<g>
				<defs>
					<path id="XMLID_13_" d="M381.58,329.46c0,0-4.07-5.85-13.99-1.27c-9.92,4.58-22.38,26.96-6.87,46.8c0,0,3.31-4.83,15.26-6.1
						C387.94,367.61,381.58,329.46,381.58,329.46z"/>
				</defs>
				<use xlink:href="#XMLID_13_"  style="overflow:visible;fill:#A072AE;"/>
				<clipPath id="XMLID_31_">
					<use xlink:href="#XMLID_13_"  style="overflow:visible;"/>
				</clipPath>
				<polygon class="st48" points="383.62,327.42 372.68,331.74 380.31,326.4 				"/>
				<path class="st48" d="M359.36,346.36c0,0-10.08,25.57,7.72,26.08C384.89,372.95,359.36,346.36,359.36,346.36"/>
			</g>
			<g>
				<defs>
					<path id="XMLID_4_" d="M385.17,356.97l0.62,14.71l-13.6,9.02c-0.53,0.34-1.24,0.04-1.35-0.58l-2.24-11.96l13.26-16.16
						L385.17,356.97z"/>
				</defs>
				<use xlink:href="#XMLID_4_"  style="overflow:visible;fill:#E7B59D;"/>
				<clipPath id="XMLID_33_">
					<use xlink:href="#XMLID_4_"  style="overflow:visible;"/>
				</clipPath>
				<path class="st49" d="M386.2,366.29c0,0-2.45-2.11-4.11-3.77c0,0-4.32,12.46-17.29,10.94c-8.72-1.03,8.56-10.07,8.56-10.07
					l8.68-6.56l4.99,3.66L386.2,366.29z"/>
			</g>
			<g>
				<defs>
					<path id="XMLID_6_" d="M357.42,355.91c0.32-4.48,2.88-12.94,2.89-12.66c0.11-0.55,1.35-6.23,3.72-7.41
						c2.49-1.24,12.85,2.07,12.85,3.32c0,0.99,0.53,7.99,4.07,11.04c0.92,0.79,2.03,1.31,3.39,1.4c2.48,0.15,4.21,1.47,5.4,3.06
						c-3.77,0.35-7.47,0.26-7.47,0.26c-3.23,18.31-15.23,16.26-18.74,15.76C359.97,370.15,356.91,363.08,357.42,355.91z"/>
				</defs>
				<use xlink:href="#XMLID_6_"  style="overflow:visible;fill:#E7B59D;"/>
				<clipPath id="XMLID_34_">
					<use xlink:href="#XMLID_6_"  style="overflow:visible;"/>
				</clipPath>
				<path class="st50" d="M368.61,334.54c0.76,0,0.89,16.09,15.83,18.73c14.94,2.64-5.4-15.42-5.4-15.42L368.61,334.54z"/>
			</g>
			<path class="st39" d="M373.08,362.59c0,0-6.32,1.9-9.21,1.25c-0.23-0.05-0.42,0.17-0.34,0.39c0.31,0.88,0.88,2.53,0.88,3.05
				C364.41,368.01,370.91,366.93,373.08,362.59z"/>
			<path class="st41" d="M373.08,353.56c0.04-0.45-0.09-0.91-0.36-1.31c-0.27-0.4-0.77-0.7-1.29-0.73
				c-0.52-0.05-0.98,0.16-1.37,0.38c-0.18,0.13-0.37,0.27-0.53,0.42c-0.15,0.17-0.3,0.33-0.42,0.51c0.22-0.06,0.42-0.14,0.61-0.22
				c0.19-0.08,0.39-0.13,0.58-0.2c0.38-0.1,0.75-0.21,1.08-0.17c0.33,0.02,0.63,0.15,0.92,0.38
				C372.58,352.87,372.83,353.2,373.08,353.56z"/>
			<path class="st41" d="M361.34,350.08c0.13-0.34,0.38-0.63,0.72-0.83c0.34-0.2,0.8-0.25,1.19-0.09c0.4,0.14,0.66,0.45,0.87,0.75
				c0.09,0.16,0.18,0.32,0.24,0.49c0.05,0.17,0.11,0.34,0.13,0.52c-0.14-0.12-0.26-0.25-0.37-0.37c-0.11-0.12-0.24-0.23-0.35-0.35
				c-0.24-0.2-0.47-0.41-0.73-0.5c-0.25-0.1-0.51-0.11-0.8-0.04C361.95,349.74,361.65,349.89,361.34,350.08z"/>
			<path class="st51" d="M368.61,335.56c0,0,4.32,15.01,16.66,16.28c12.34,1.27-10.05-18.31-10.05-18.31h-12.46l-3.81,9.41
				C358.95,342.93,366.32,340.65,368.61,335.56z"/>
			<path class="st51" d="M368.59,333.52c0.28,0,12.23-6.61,17.32-5.09c5.09,1.53,16.53,17.55,15.01,33.57
				c-1.53,16.02-23.14,13.73-23.14,13.73s11.19-14.5,1.02-31.03l-7.63-7.12L368.59,333.52z"/>
			
				<rect x="378.83" y="351.31" transform="matrix(0.5767 -0.817 0.817 0.5767 -126.6126 468.0564)" class="st38" width="19.06" height="9.79"/>
			<path class="st37" d="M397.93,366.22c0,0,0-11.13-1.79-12.56c-1.79-1.44-6.1-6.82-8.26-5.38s-1.08,2.15-2.51,2.87
				c-1.44,0.72-0.72,1.79-1.79,2.51c-1.08,0.72-2.51,3.59-1.79,3.59c0.72,0,3.23,0,3.23,0s5.02,9.33,7.18,8.97l0.36,1.44h5.38
				V366.22z"/>
			<path class="st37" d="M391.76,364.04c0,0-0.17,44.93,3.56,47.42c3.73,2.49,13.68-0.41,11.6-8.7c-2.07-8.29-9.53-38.54-9.53-38.54
				L391.76,364.04z"/>
			<path class="st52" d="M365.82,359.47l-2.29-1.27c0,0,1.66-2.16,2.43-3.66c0.1-0.2,0.4-0.13,0.4,0.09
				C366.38,355.85,366.32,357.94,365.82,359.47z"/>
			<g>
				<path class="st51" d="M374.67,351.34c-0.53-1.71-1.97-3.14-3.7-3.6c-0.24-0.06-0.14-0.43,0.1-0.37
					c1.86,0.49,3.39,2.02,3.96,3.86C375.11,351.47,374.74,351.57,374.67,351.34L374.67,351.34z"/>
			</g>
			<g>
				<path class="st51" d="M365.12,345.66c-1.53-0.17-3.14,0.47-4.09,1.68c-0.13,0.17-0.39-0.04-0.25-0.21
					c1.02-1.3,2.75-1.98,4.39-1.8C365.38,345.36,365.33,345.68,365.12,345.66L365.12,345.66z"/>
			</g>
			<path class="st51" d="M367.98,333.52l-0.01,0.54c0,0.2,0,0.39,0.01,0.59c0.01,0.39,0.04,0.78,0.08,1.17
				c0.08,0.78,0.2,1.55,0.37,2.3c0.34,1.52,0.87,2.98,1.57,4.35c0.7,1.37,1.58,2.64,2.59,3.79c1.02,1.14,2.17,2.15,3.4,3.02
				c-1.17-0.96-2.24-2.04-3.16-3.22c-0.91-1.19-1.68-2.49-2.26-3.85c-0.58-1.37-0.99-2.8-1.21-4.26c-0.11-0.73-0.17-1.46-0.2-2.2
				c-0.01-0.37-0.01-0.73,0.01-1.1c0.01-0.18,0.02-0.36,0.03-0.55l0.05-0.59H367.98z"/>
		</g>
	</g>
</g>
<g id="DESIGNED_BY_FREEPIK" class="st0">
	<g class="st53">
		<g id="XMLID_24_">
			<g id="XMLID_210_">
				<path id="XMLID_278_" class="st54" d="M260.1,470.92c-0.43,0.44-0.8,0.93-1.11,1.45l-0.47-0.24c-0.07-0.3-0.35-0.5-0.66-0.47
					c-0.33,0.04-0.57,0.34-0.53,0.67s0.34,0.57,0.67,0.53c0.07-0.01,0.13-0.03,0.18-0.05l0.45,0.23c-0.25,0.55-0.43,1.14-0.54,1.74
					l0.75,0.13c0.23-1.31,0.85-2.51,1.79-3.47L260.1,470.92z"/>
				<path id="XMLID_277_" class="st54" d="M265.59,468.62c-0.17,0-0.34,0.01-0.51,0.02l-0.07-0.63c0.19-0.15,0.3-0.39,0.27-0.64
					c-0.05-0.39-0.4-0.67-0.8-0.63s-0.67,0.4-0.63,0.8c0.03,0.25,0.19,0.46,0.4,0.56l0.07,0.62c-0.71,0.12-1.4,0.33-2.06,0.65
					l0.33,0.68c0.93-0.45,1.94-0.67,3-0.67c0.5,0,0.99,0.05,1.48,0.16l0.16-0.74C266.69,468.68,266.14,468.62,265.59,468.62z"/>
				<path id="XMLID_265_" class="st54" d="M272.19,471.17c0.33-0.04,0.57-0.34,0.53-0.67c-0.04-0.33-0.34-0.57-0.67-0.53
					c-0.31,0.04-0.54,0.3-0.53,0.61l-0.42,0.36c-0.42-0.43-0.89-0.81-1.41-1.14l-0.4,0.64c1.13,0.71,2.02,1.73,2.56,2.93l0.69-0.31
					c-0.25-0.55-0.57-1.07-0.94-1.55l0.4-0.35C272.06,471.17,272.13,471.17,272.19,471.17z"/>
				<path id="XMLID_264_" class="st54" d="M265.04,478.83c-0.39,0.02-0.77,0.03-1.16,0.03c-0.88,0-1.73-0.06-2.48-0.18
					c-0.39-0.06-0.85-0.15-1.27-0.29c1.05,1.86,3.07,3.13,5.39,3.13c2.86,0,5.26-1.92,5.95-4.5c-0.68,0.45-1.51,0.83-2.46,1.12
					C267.84,478.5,266.46,478.74,265.04,478.83z"/>
				<path id="XMLID_233_" class="st54" d="M265.59,470.13c-3.35,0-6.08,2.67-6.08,5.94c0,0.43,0.05,0.85,0.14,1.26
					c0.67,0.48,2.71,0.89,5.35,0.73c2.88-0.17,5.3-0.96,6.67-2.16c-0.01-0.19-0.02-0.39-0.05-0.58
					C271.24,472.37,268.65,470.13,265.59,470.13z M263.43,476.65c-1.02,0-1.85-0.83-1.85-1.85c0-1.02,0.83-1.85,1.85-1.85
					c1.02,0,1.85,0.83,1.85,1.85C265.28,475.82,264.45,476.65,263.43,476.65z M268.17,475.74c-0.75,0-1.36-0.61-1.36-1.36
					s0.61-1.36,1.36-1.36c0.75,0,1.36,0.61,1.36,1.36S268.92,475.74,268.17,475.74z"/>
			</g>
			<path id="XMLID_209_" class="st54" d="M281.6,472c-0.29-0.12-0.81-0.31-1.38-0.24c-0.55,0.07-0.84,0.34-0.84,1.01v0.87h2.23v1.72
				h-2.23v5.45h-1.93v-5.45h-1.34v-1.72h1.34v-0.89c0-1.68,0.9-2.78,2.57-2.78c0.64,0,1.16,0.12,1.59,0.31L281.6,472z"/>
			<path id="XMLID_180_" class="st54" d="M286.3,475.33c-0.18-0.03-0.36-0.05-0.53-0.05c-0.9,0-1.51,0.55-1.51,1.61v3.91h-1.93
				v-7.17h1.87v0.78c0.45-0.67,1.14-0.98,2.02-0.98c0.41,0,0.85,0.13,1.09,0.34L286.3,475.33z"/>
			<path id="XMLID_141_" class="st54" d="M293.97,477.21c0,0.22-0.01,0.49-0.04,0.65h-5.08c0.21,1.04,0.93,1.49,1.84,1.49
				c0.62,0,1.3-0.25,1.81-0.69l1.13,1.24c-0.81,0.75-1.85,1.09-3.06,1.09c-2.2,0-3.72-1.5-3.72-3.75c0-2.26,1.48-3.8,3.63-3.8
				C292.54,473.44,293.96,474.98,293.97,477.21z M288.85,476.55h3.18c-0.18-0.92-0.73-1.44-1.56-1.44
				C289.55,475.11,289.02,475.66,288.85,476.55z"/>
			<path id="XMLID_69_" class="st54" d="M301.62,477.21c0,0.22-0.02,0.49-0.04,0.65h-5.08c0.21,1.04,0.93,1.49,1.84,1.49
				c0.62,0,1.3-0.25,1.81-0.69l1.13,1.24c-0.81,0.75-1.85,1.09-3.06,1.09c-2.2,0-3.72-1.5-3.72-3.75c0-2.26,1.48-3.8,3.63-3.8
				C300.2,473.44,301.61,474.98,301.62,477.21z M296.5,476.55h3.18c-0.18-0.92-0.73-1.44-1.56-1.44
				C297.21,475.11,296.67,475.66,296.5,476.55z"/>
			<path id="XMLID_325_" class="st54" d="M309.96,477.22c0,2.15-1.5,3.77-3.47,3.77c-0.96,0-1.64-0.38-2.11-0.93v3.71h-1.92v-10.13
				h1.89v0.79c0.47-0.58,1.15-0.98,2.14-0.98C308.47,473.44,309.96,475.07,309.96,477.22z M304.29,477.22
				c0,1.13,0.75,1.98,1.84,1.98c1.14,0,1.85-0.88,1.85-1.98c0-1.1-0.71-1.98-1.85-1.98C305.03,475.24,304.29,476.09,304.29,477.22z"
				/>
			<path id="XMLID_35_" class="st54" d="M313.07,471.29c0,0.7-0.54,1.23-1.24,1.23c-0.7,0-1.23-0.53-1.23-1.23
				c0-0.7,0.53-1.24,1.23-1.24C312.53,470.05,313.07,470.59,313.07,471.29z M312.81,480.81h-1.93v-7.17h1.93V480.81z"/>
			<path id="XMLID_25_" class="st54" d="M316.03,476.19l2.7-2.55h2.37l-3.48,3.38l3.5,3.8h-2.38l-2.72-2.9v2.9h-1.93v-10.66h1.93
				V476.19z"/>
		</g>
		<g>
			<path class="st54" d="M184.41,480.74v-1.05c-0.53,0.72-1.39,1.23-2.39,1.23c-1.85,0-3.15-1.41-3.15-3.71
				c0-2.26,1.29-3.72,3.15-3.72c0.95,0,1.82,0.47,2.39,1.25v-3.76h1.1v9.77H184.41z M184.41,478.82v-3.21
				c-0.4-0.62-1.24-1.14-2.12-1.14c-1.42,0-2.27,1.17-2.27,2.74c0,1.57,0.85,2.72,2.27,2.72
				C183.17,479.94,184.02,479.44,184.41,478.82z"/>
			<path class="st54" d="M186.93,477.2c0-2.05,1.46-3.71,3.49-3.71c2.14,0,3.4,1.67,3.4,3.79v0.28h-5.73
				c0.09,1.33,1.03,2.45,2.55,2.45c0.81,0,1.63-0.32,2.18-0.89l0.53,0.72c-0.7,0.7-1.65,1.08-2.81,1.08
				C188.44,480.92,186.93,479.41,186.93,477.2z M190.4,474.4c-1.51,0-2.26,1.27-2.31,2.36h4.64
				C192.72,475.7,192.01,474.4,190.4,474.4z"/>
			<path class="st54" d="M194.61,479.81l0.57-0.79c0.47,0.54,1.36,1.01,2.33,1.01c1.08,0,1.67-0.51,1.67-1.22
				c0-1.71-4.38-0.66-4.38-3.28c0-1.1,0.95-2.04,2.64-2.04c1.2,0,2.05,0.45,2.62,1.03l-0.51,0.76c-0.42-0.51-1.2-0.89-2.11-0.89
				c-0.97,0-1.57,0.48-1.57,1.11c0,1.55,4.38,0.53,4.38,3.28c0,1.19-0.95,2.14-2.78,2.14C196.31,480.92,195.32,480.57,194.61,479.81
				z"/>
			<path class="st54" d="M201.48,471.93c0-0.41,0.34-0.75,0.73-0.75c0.41,0,0.75,0.34,0.75,0.75c0,0.41-0.34,0.73-0.75,0.73
				C201.81,472.66,201.48,472.34,201.48,471.93z M201.67,480.74v-7.07h1.1v7.07H201.67z"/>
			<path class="st54" d="M204.58,482.56l0.56-0.82c0.59,0.7,1.29,0.97,2.3,0.97c1.17,0,2.27-0.57,2.27-2.12v-1.01
				c-0.51,0.72-1.38,1.26-2.37,1.26c-1.85,0-3.15-1.38-3.15-3.66c0-2.27,1.29-3.68,3.15-3.68c0.95,0,1.8,0.47,2.37,1.25v-1.07h1.1
				v6.87c0,2.34-1.64,3.08-3.37,3.08C206.24,483.61,205.42,483.38,204.58,482.56z M209.71,478.71v-3.09
				c-0.38-0.62-1.23-1.14-2.11-1.14c-1.42,0-2.27,1.13-2.27,2.7c0,1.55,0.85,2.7,2.27,2.7
				C208.48,479.86,209.33,479.32,209.71,478.71z"/>
			<path class="st54" d="M217.41,480.74v-4.63c0-1.24-0.63-1.64-1.58-1.64c-0.86,0-1.68,0.53-2.09,1.1v5.17h-1.1v-7.07h1.1v1.03
				c0.5-0.59,1.46-1.2,2.52-1.2c1.48,0,2.26,0.75,2.26,2.29v4.97H217.41z"/>
			<path class="st54" d="M219.93,477.2c0-2.05,1.46-3.71,3.49-3.71c2.14,0,3.4,1.67,3.4,3.79v0.28h-5.73
				c0.09,1.33,1.03,2.45,2.55,2.45c0.81,0,1.63-0.32,2.18-0.89l0.53,0.72c-0.7,0.7-1.66,1.08-2.81,1.08
				C221.44,480.92,219.93,479.41,219.93,477.2z M223.4,474.4c-1.51,0-2.26,1.27-2.31,2.36h4.64
				C225.72,475.7,225.02,474.4,223.4,474.4z"/>
			<path class="st54" d="M233.35,480.74v-1.05c-0.53,0.72-1.39,1.23-2.39,1.23c-1.85,0-3.15-1.41-3.15-3.71
				c0-2.26,1.29-3.72,3.15-3.72c0.95,0,1.82,0.47,2.39,1.25v-3.76h1.1v9.77H233.35z M233.35,478.82v-3.21
				c-0.4-0.62-1.25-1.14-2.12-1.14c-1.42,0-2.27,1.17-2.27,2.74c0,1.57,0.85,2.72,2.27,2.72
				C232.1,479.94,232.95,479.44,233.35,478.82z"/>
			<path class="st54" d="M239.69,480.74v-9.77h1.1v3.76c0.57-0.78,1.42-1.25,2.39-1.25c1.85,0,3.15,1.46,3.15,3.72
				c0,2.3-1.3,3.71-3.15,3.71c-1,0-1.86-0.51-2.39-1.23v1.05H239.69z M242.9,479.94c1.44,0,2.29-1.16,2.29-2.72
				c0-1.57-0.85-2.74-2.29-2.74c-0.86,0-1.73,0.53-2.11,1.14v3.21C241.17,479.44,242.04,479.94,242.9,479.94z"/>
			<path class="st54" d="M247.53,482.52c0.16,0.07,0.43,0.12,0.6,0.12c0.48,0,0.81-0.16,1.05-0.75l0.47-1.07l-2.96-7.15h1.19
				l2.36,5.8l2.34-5.8h1.2l-3.54,8.51c-0.42,1.03-1.14,1.42-2.08,1.44c-0.23,0-0.6-0.04-0.81-0.1L247.53,482.52z"/>
		</g>
	</g>
</g>
</svg>
